<?xml version="1.0" encoding="utf-8"?>
<svg
	version="1.1"
	xmlns="http://www.w3.org/2000/svg"
	xmlns:xlink="http://www.w3.org/1999/xlink"
	x="0%" y="0%"
	width="100%" height="100%"
	viewBox="0 0 20.0 20.0"
	enable-background="new 0 0 20.0 20.0"
	xml:space="preserve">
	<path
		fill="#FFFFFF"
		stroke="#000000"
		fill-opacity="1.000"
		stroke-opacity="1.000"
		fill-rule="nonzero"
		stroke-width="0.0"
		stroke-linejoin="miter"
		stroke-linecap="square"
		d="M8.61,2.09L9.41,2.44A1.60 1.60 0 0 1 10.23,4.55L4.74,17.02A1.60 1.60 0 0 1 2.63,17.84L1.83,17.48A1.60 1.60 0 0 1 1.01,15.37L6.50,2.91A1.60 1.60 0 0 1 8.61,2.09z"/>
	<path
		fill="#FFFFFF"
		stroke="#000000"
		fill-opacity="1.000"
		stroke-opacity="1.000"
		fill-rule="nonzero"
		stroke-width="0.0"
		stroke-linejoin="miter"
		stroke-linecap="square"
		d="M1.31,3.30L1.31,3.30A2.28 2.28 0 0 1 4.49,3.81L12.14,14.36A2.28 2.28 0 0 1 11.63,17.54L11.63,17.54A2.28 2.28 0 0 1 8.45,17.03L0.80,6.48A2.28 2.28 0 0 1 1.31,3.30z"/>
	<path
		fill="#FFFFFF"
		stroke="#000000"
		fill-opacity="1.000"
		stroke-opacity="1.000"
		fill-rule="nonzero"
		stroke-width="0.0"
		stroke-linejoin="miter"
		stroke-linecap="square"
		d="M9.08,4.64A6.05 6.39 348.02 1 1 11.22,14.68M13.90,10.31A2.52 2.21 74.86 1 0 12.56,6.32"/>
</svg>