<?xml version="1.0" encoding="utf-8"?>
<svg
	version="1.1"
	xmlns="http://www.w3.org/2000/svg"
	xmlns:xlink="http://www.w3.org/1999/xlink"
	x="0%" y="0%"
	width="100%" height="100%"
	viewBox="0 0 20.0 20.0"
	enable-background="new 0 0 20.0 20.0"
	xml:space="preserve">
	<path
		fill="#FFFFFF"
		stroke="#000000"
		fill-opacity="1.000"
		stroke-opacity="1.000"
		fill-rule="nonzero"
		stroke-width="0.0"
		stroke-linejoin="miter"
		stroke-linecap="square"
		d="M9.03,4.27L9.72,4.58A1.38 1.38 0 0 1 10.43,6.40L5.78,16.94A1.38 1.38 0 0 1 3.96,17.65L3.27,17.34A1.38 1.38 0 0 1 2.57,15.53L7.21,4.98A1.38 1.38 0 0 1 9.03,4.27z"/>
	<path
		fill="#FFFFFF"
		stroke="#000000"
		fill-opacity="1.000"
		stroke-opacity="1.000"
		fill-rule="nonzero"
		stroke-width="0.0"
		stroke-linejoin="miter"
		stroke-linecap="square"
		d="M2.85,5.35L2.85,5.35A1.85 1.85 0 0 1 5.43,5.76L11.97,14.77A1.85 1.85 0 0 1 11.56,17.35L11.56,17.35A1.85 1.85 0 0 1 8.98,16.94L2.44,7.93A1.85 1.85 0 0 1 2.85,5.35z"/>
	<path
		fill="#FFFFFF"
		stroke="#000000"
		fill-opacity="1.000"
		stroke-opacity="1.000"
		fill-rule="nonzero"
		stroke-width="0.0"
		stroke-linejoin="miter"
		stroke-linecap="square"
		d="M9.39,6.43A5.05 5.43 348.02 1 1 11.17,14.97M13.72,12.17A2.52 2.21 74.86 1 0 12.38,8.18"/>
</svg>